<svg xmlns="http://www.w3.org/2000/svg" width="332" height="48" viewBox="0 0 332 48">
    <defs>
        <style>
            .cls-1{fill:#1b75bb}.cls-3{fill:#ec1c24}
        </style>
    </defs>
    <g id="Brands_Logo" transform="translate(0 -5)">
        <g id="Logo_Set" transform="translate(44.549 14.242)">
            <g id="Group_193">
                <g id="Group_192" transform="translate(0 2.006)">
                    <path id="Path_12029" d="M71 128.239v-12.221l-3.618 6.309h-4.016l-3.618-6.307v12.221h-6.267v-25.518h6.16l5.73 11.253 5.73-11.253h6.16v25.516H71z" class="cls-1" transform="translate(-53.481 -102.723)"/>
                </g>
                <path id="Path_12030" d="M84.129 107.869a3.584 3.584 0 1 1 3.582-3.584 3.595 3.595 0 0 1-3.582 3.584zm-2.937 20.14V109.48h5.875v18.528z" class="cls-1" transform="translate(-53.717 -100.7)"/>
                <path id="Path_12031" d="M96.918 134.522c-3.009 0-5.266-.538-7.235-2.509l3.653-3.656a4.343 4.343 0 0 0 3.294 1.219 2.793 2.793 0 0 0 3.116-2.939v-1.4a5.475 5.475 0 0 1-4.155 1.614 6.179 6.179 0 0 1-4.512-1.721c-1.755-1.756-1.791-3.906-1.791-7.418s.036-5.662 1.791-7.418a6.269 6.269 0 0 1 4.548-1.721 5.435 5.435 0 0 1 4.3 1.792v-1.576h5.694v17.883c0 4.554-3.439 7.85-8.703 7.85zm.538-20.642c-2.148 0-2.293 1.864-2.293 3.834s.143 3.834 2.293 3.834 2.293-1.864 2.293-3.834-.149-3.834-2.293-3.834z" class="cls-1" transform="translate(-53.794 -100.764)"/>
                <path id="Path_12032" d="M122.436 125.814a9 9 0 0 1-12.392 0c-1.613-1.756-2.112-3.584-2.112-7.383 0-3.763.5-5.626 2.112-7.383a9 9 0 0 1 12.392 0c1.613 1.756 2.112 3.62 2.112 7.383 0 3.801-.502 5.629-2.112 7.383zm-4.621-11.4a2.58 2.58 0 0 0-3.154 0c-.752.752-.859 2.114-.859 4.015s.107 3.261.859 4.013a2.58 2.58 0 0 0 3.154 0c.752-.752.859-2.113.859-4.013s-.108-3.259-.859-4.011z" class="cls-1" transform="translate(-53.956 -100.764)"/>
                <path id="Path_12033" d="M141.689 126.483A6.647 6.647 0 0 1 137 128.24a5.692 5.692 0 0 1-4.441-1.792v1.576h-5.694v-25.517h5.873v7.633a5.642 5.642 0 0 1 4.3-1.614 6.55 6.55 0 0 1 4.655 1.756c1.9 1.9 1.791 5.269 1.791 8.1s.103 6.2-1.795 8.101zm-6.519-12.652c-2.184 0-2.436 1.756-2.436 4.551s.252 4.551 2.436 4.551 2.436-1.756 2.436-4.551-.251-4.551-2.436-4.551z" class="cls-1" transform="translate(-54.122 -100.715)"/>
                <path id="Path_12034" d="M156.355 128.074V126.5a6.526 6.526 0 0 1-4.476 1.792 5.94 5.94 0 0 1-4.334-1.649 7.077 7.077 0 0 1-1.934-5.519v-12.33h5.873v11.541a2.38 2.38 0 1 0 4.728 0v-11.541h5.875v19.28h-5.732z" class="cls-1" transform="translate(-54.285 -100.766)"/>
                <path id="Path_12035" d="M172.884 128.289c-3.332 0-8.667-1.433-8.667-9.856s5.337-9.856 8.667-9.856a8.568 8.568 0 0 1 6.339 2.473l-3.977 3.977a3.126 3.126 0 0 0-2.364-1.147 2.376 2.376 0 0 0-1.827.752c-.68.716-.968 1.971-.968 3.8s.286 3.082.968 3.8a2.376 2.376 0 0 0 1.827.752 3.129 3.129 0 0 0 2.364-1.147l3.977 3.977a8.562 8.562 0 0 1-6.339 2.475z" class="cls-1" transform="translate(-54.448 -100.764)"/>
                <path id="Path_12036" d="M191.648 128.023l-4.012-7.059-1.146 1.254v5.8h-5.873v-25.511h5.873v12.973l5.192-6.738h7.055l-7.09 7.992 7.271 11.288z" class="cls-1" transform="translate(-54.591 -100.715)"/>
                <path id="Path_12037" d="M206.2 128.289c-2.9 0-5.73-.143-8.382-2.8l3.8-3.8a6.273 6.273 0 0 0 4.693 1.614c.859 0 2.507-.25 2.507-1.254 0-.538-.25-1.111-1.4-1.219l-2.973-.286c-3.33-.324-5.587-1.828-5.587-5.591 0-4.265 3.832-6.378 7.664-6.378 3.152 0 5.694.466 7.592 2.366l-3.618 3.62c-.968-.966-2.578-1.147-4.082-1.147-1.432 0-1.9.681-1.9 1.111 0 .214-.071.931 1.253 1.076l2.973.286c4.048.4 5.8 2.794 5.8 5.879 0 4.55-3.868 6.523-8.34 6.523z" class="cls-1" transform="translate(-54.741 -100.764)"/>
                <path id="Path_12038" fill="#f82e7d" d="M84.129 107.869a3.584 3.584 0 1 1 3.582-3.584 3.595 3.595 0 0 1-3.582 3.584z" transform="translate(-53.717 -100.7)"/>
            </g>
        </g>
        <path id="Path_13251" d="M-100.25 4.707v-25.3h11.35q8.772 0 8.772 6.208 0 4.411-5.293 5.652 6.378 1.26 6.378 6.709 0 6.727-8.585 6.727zm7.407-2.094h2.114q4.152 0 4.152-4.707 0-5.393-4.283-5.393h-1.983zm0-12.194h2.282q3.161 0 3.161-4.633 0-4.281-3.348-4.281h-2.095zm30.865 2.391h-4.676a14.412 14.412 0 0 1 .43-1.612 4.257 4.257 0 0 0 .262-1.371q0-1.186-.86-1.186-.655 0-1.253 1.566a9.186 9.186 0 0 0-.6 3.308V4.707H-75.5v-18.681l1.328.019a35.543 35.543 0 0 0 5.5-.5v3.076q1.665-3.076 4.077-3.076 3.292 0 3.292 3.6a8.743 8.743 0 0 1-.318 2.168q-.115.495-.358 1.496zm22.8 11.231A13.557 13.557 0 0 1-44.057 5q-3.516 0-4.343-2.165A5.762 5.762 0 0 1-53.3 5.1q-5.967 0-5.967-5.486 0-4.17 5.462-5.856 5.016-1.558 5.016-3.748a2.542 2.542 0 0 0-2.88-2.873q-3.329 0-3.329 2.78a7.086 7.086 0 0 0 .524 2.3l-3.385-.649a11.006 11.006 0 0 1-.131-1.631q0-4.448 8.192-4.448 7.781 0 7.781 4.151V.982q0 1.742 1.141 1.742a2.453 2.453 0 0 0 1.047-.389zm-9.67-10.564a5.777 5.777 0 0 1-1.478 1.2 4.368 4.368 0 0 0-2.114 4.114q0 3.707 1.459 3.707 2.132 0 2.132-3.669zm29.709 11.23h-6.827V-9.007q0-2.094-1.178-2.094-1.2 0-2.076 1.659a8.258 8.258 0 0 0-.879 3.92V4.707h-6.827v-18.718a49.215 49.215 0 0 0 6.827-.463v3.5a7.5 7.5 0 0 1 6.21-3.484q4.751 0 4.751 4.781zm21.7-25.686V4.707h-6.827V3.094a5.716 5.716 0 0 1-4.6 2.039q-6.359 0-6.359-9.674 0-9.952 6.733-9.952a4.869 4.869 0 0 1 4.227 2.317v-8.414a66.433 66.433 0 0 0 6.826-.389zm-8.847 9.211q-1.721 0-1.721 3.132l-.131 3.966.075 3.614q0 3.466 1.945 3.466 1.889 0 1.889-3.41l.094-4.559-.15-3.113q-.299-3.097-2.001-3.097zM21.96-9.174l-3.31.574q0-4.188-3.928-4.188-2.413 0-2.413 1.964 0 1.446 4.152 3.113 6.359 2.576 6.359 6.542 0 6.32-8.1 6.32-8.566 0-8.566-6.32l3.516-.7A9.49 9.49 0 0 0 9.6-.723a3.663 3.663 0 0 0 1.375 2.835 4.765 4.765 0 0 0 3.245 1.2q2.469 0 2.469-2.076 0-1.39-3.984-3.076-6-2.558-6-6.561A5.183 5.183 0 0 1 9-12.742a9.706 9.706 0 0 1 5.91-1.7q6.414.005 7.05 5.268z" class="cls-3" transform="translate(309.179 36.836)"/>
        <g id="brand" transform="translate(0 5)">
            <path id="Path_13225" d="M29.058 44.129a10.064 10.064 0 1 1 10.058-10.065 10.073 10.073 0 0 1-10.058 10.065z" class="cls-3" transform="translate(-15.905 -6.194)"/>
            <path id="Path_13226" fill="#fff" d="M26.277 41.37l-1.6-1.191 1.738-4-3.761-2.479.73-1.827 4.292-.007L28.741 28h2.108l1.082 3.871h4.275l.733 1.829-3.763 2.477 1.738 4-1.6 1.191-3.514-2.892zm3.519-4.9l2.832 2.33-1.391-3.2 3.312-2.179h-3.793l-.959-3.43-.944 3.424-3.812.006 3.311 2.18-1.39 3.2z" transform="translate(-16.732 -7.097)"/>
            <path id="Path_13227" d="M20.547 22.742H19v-1.548h1.547zm0-3.1H19V18.1h1.547zm0-3.1H19V15h1.547z" class="cls-1" transform="translate(-15.905 -4.161)"/>
            <path id="Path_13228" d="M44.547 52.742H43v-1.548h1.547zm0-3.1H43V48.1h1.547zm0-3.1H43V45h1.547z" class="cls-1" transform="translate(-21.336 -10.936)"/>
            <path id="Path_13229" d="M52.138 9.516c0-3.473-5.438-6.194-12.379-6.194a24.518 24.518 0 0 0-4 .325L33.116 1H23.19L15 9.2V49h26.306V15.659c6.183-.371 10.832-2.933 10.832-6.142zM23.831 2.548h8.644l6.19 6.194h-6.722a3.868 3.868 0 0 0-7.581 0h-6.721zm5.1 6.968a2.517 2.517 0 0 1 .807-1.691 2.3 2.3 0 0 1 .015 3.369 2.48 2.48 0 0 1-.826-1.678zm-.675 2.313c-.033 0-.065.01-.1.01a2.323 2.323 0 0 1 0-4.645c.029 0 .055.008.084.009a3.763 3.763 0 0 0-.857 2.314 3.731 3.731 0 0 0 .868 2.312zm3.692-1.538h7.815v3.871a17.441 17.441 0 0 1-8.779-2.021 3.846 3.846 0 0 0 .959-1.851zm7.815 34.064H19.642V45.9h20.117v1.548H16.547V45.9h1.547v-1.545h-1.547V10.29h7.815a3.876 3.876 0 0 0 3.79 3.1 3.831 3.831 0 0 0 1.455-.29c2.219 1.589 5.9 2.612 10.15 2.612zm1.547-30.248V9.2l-4.177-4.18a23.7 23.7 0 0 1 2.625-.149c6.383 0 10.832 2.448 10.832 4.645.001 2.015-3.743 4.233-9.284 4.59z" class="cls-1" transform="translate(-15 -1)"/>
        </g>
    </g>
</svg>
