<svg xmlns="http://www.w3.org/2000/svg" width="593.532" height="389.932" viewBox="0 0 593.532 389.932">
    <defs>
        <style>
            .cls-1{fill:#e6e6e6}.cls-4{fill:#f3e367}.cls-5{fill:#373833}.cls-6{fill:#ffb8b8}.cls-7{fill:#575a89}.cls-8{fill:#2f2e41}
        </style>
    </defs>
    <g id="Group_15" transform="translate(-18)">
        <ellipse id="Ellipse_5" cx="296.766" cy="13.375" class="cls-1" rx="296.766" ry="13.375" transform="translate(18 304.166)"/>
        <path id="Rectangle_46" fill="#3f3d56" d="M0 0H174.786V318.841H0z" transform="translate(219.358)"/>
        <path id="Path_23" fill="#fff" d="M494.82 487.727H654.5V185.11H494.82z" transform="translate(-267.908 -176.998)"/>
        <path id="Rectangle_47" d="M0 0H41.51V3.855H0z" class="cls-4" transform="translate(290.297 77.708)"/>
        <path id="Rectangle_48" d="M0 0H72.349V3.855H0z" class="cls-1" transform="translate(290.297 91.043)"/>
        <path id="Rectangle_49" d="M0 0H72.277V3.855H0z" class="cls-1" transform="translate(290.297 104.377)"/>
        <path id="Rectangle_50" d="M0 0H30.838V30.838H0z" class="cls-5" transform="translate(250.856 77.765)"/>
        <path id="Rectangle_51" d="M0 0H41.51V3.855H0z" class="cls-4" transform="translate(290.297 143.973)"/>
        <path id="Rectangle_52" d="M0 0H72.349V3.855H0z" class="cls-1" transform="translate(290.297 157.308)"/>
        <path id="Rectangle_53" d="M0 0H72.277V3.855H0z" class="cls-1" transform="translate(290.297 170.643)"/>
        <path id="Rectangle_54" d="M0 0H30.838V30.838H0z" class="cls-5" transform="translate(250.856 144.03)"/>
        <path id="Rectangle_55" d="M0 0H41.51V3.855H0z" class="cls-4" transform="translate(290.297 210.238)"/>
        <path id="Rectangle_56" d="M0 0H72.349V3.855H0z" class="cls-1" transform="translate(290.297 223.573)"/>
        <path id="Rectangle_57" d="M0 0H72.277V3.855H0z" class="cls-1" transform="translate(290.297 236.908)"/>
        <path id="Rectangle_58" d="M0 0H30.838V30.838H0z" class="cls-5" transform="translate(250.856 210.295)"/>
        <path id="Path_24" d="M11.443 1.411l-2.116 9.17s.705 21.162-4.938 19.046S.157 9.17.157 9.17L5.095 0z" class="cls-6" transform="rotate(-37 445.73 -297.548)"/>
        <circle id="Ellipse_6" cx="14.211" cy="14.211" r="14.211" class="cls-6" transform="translate(195.592 97.962)"/>
        <path id="Path_25" d="M456.915 337.11l-1.415 20.457 17.635 2.116s0-16.93 1.411-19.046-17.631-3.527-17.631-3.527z" class="cls-6" transform="translate(-256.326 -221.777)"/>
        <path id="Path_26" d="M484.428 368.7l-22.843-9.674s-10.912-8.42-17.313-2.195l-2.874 4.109S416 370.811 416 378.571l9.876 38.8s-5.643 21.867 2.822 23.278l45.851 4.232a15.869 15.869 0 0 0 .705-17.635l2.116-23.278z" class="cls-7" transform="translate(-244.689 -226.91)"/>
        <path id="Path_27" d="M0 .705L15.519 0s4.938 1.411 8.465 14.813 4.232 35.27 4.232 35.27l-8.465 39.5L9.17 88.175l4.23-38.092-7.051-25.394z" class="cls-7" transform="rotate(-37 325.535 -245.281)"/>
        <path id="Path_28" d="M420.934 381.61l-7.651 2.383s-6.457 9.609-6.457 14.547S404 440.864 404 440.864l18.34 30.332 5.643-14.813-11.283-19.046 9.17-23.278z" class="cls-7" transform="translate(-241.154 -234.886)"/>
        <path id="Path_29" d="M477.258 478.746l-50.716-4.462s-5.011 31.973-4.305 44.67 1.411 32.448 1.411 32.448L418 637.462l21.867-2.822 2.822-71.246 9.17-38.8 10.581 49.378 7.054 63.486 19.046-2.116-6.34-76.885s5.639-69.13-4.942-79.711z" class="cls-8" transform="translate(-245.279 -262.188)"/>
        <path id="Path_30" d="M506.112 697.61l6.349 2.116s13.4-3.527 9.876 5.643-13.4 7.759-13.4 7.759-11.992 9.17-16.93 2.116l2.822-14.813z" class="cls-8" transform="translate(-267.079 -327.98)"/>
        <path id="Path_31" d="M433.112 697.61l6.349 2.116s13.4-3.527 9.876 5.643-13.4 7.759-13.4 7.759-11.992 9.17-16.93 2.116l2.822-14.813z" class="cls-8" transform="translate(-245.573 -327.98)"/>
        <path id="Path_32" d="M453.619 336.215s-14.813-10.581-7.054-23.278c5.383-8.809 16.538-8.111 22.865-6.858a10.689 10.689 0 0 1 7.82 6.153c1.058 2.469 1.058 4.938-3.174 4.938-8.465 0-4.232 6.349-4.232 6.349s-5.643 1.411-4.232 6.349-11.993 6.347-11.993 6.347z" class="cls-8" transform="translate(-252.641 -212.449)"/>
    </g>
</svg>
