<svg xmlns="http://www.w3.org/2000/svg" width="531.508" height="519.014" viewBox="0 0 531.508 519.014">
    <defs>
        <linearGradient id="linear-gradient" x1=".5" x2=".5" y2="1" gradientUnits="objectBoundingBox">
            <stop offset="0" stop-color="#0e6cb6"/>
            <stop offset="1" stop-color="#1765a2"/>
        </linearGradient>
        <style>
            .cls-1{fill:#328b3d}.cls-1,.cls-11,.cls-13,.cls-14,.cls-16,.cls-18,.cls-19,.cls-2,.cls-20,.cls-28,.cls-3,.cls-5,.cls-8,.cls-9{fill-rule:evenodd}.cls-2{fill:#69b83b}.cls-3{fill:#44a951}.cls-5{fill:#59616e}.cls-20{fill:#aabeeb}.cls-27,.cls-8{fill:#407adb}.cls-10,.cls-28,.cls-9{fill:#fff}.cls-11{fill:#fdceae}.cls-13{fill:#f3b898}.cls-14,.cls-23{fill:#424b96}.cls-18,.cls-25,.cls-28{stroke:transparent}.cls-28{stroke-miterlimit:10}.cls-16{fill:#5e94ea}.cls-18,.cls-25{fill:url(#linear-gradient)}.cls-19{fill:#b7cdfe}.cls-26{fill:#cfd8fc}
        </style>
    </defs>
    <g id="Illustration" transform="translate(0 .5)">
        <g id="Group_1296" transform="translate(47.054 306.36)">
            <path id="Path_1217" d="M264.827 491.188H155.9a17.8 17.8 0 0 1-7.117-4.318c-7.061-7.136-9.2-12.144-9.217-12.12.019.239 20.651 6.091 18.057 1.476-2.473-4.28-20-4.167-24.842-10.317-4.846-5.945-10.706-16.832-10.662-16.845-.035.162 15.191 9.756 14.878 5.073-.307-4.338-17.718-11.985-21.547-19.466-3.814-7.076 15.1 5.7 17.087 3.335 1.893-1.836-18.174-14.832-22.107-21.315-4.109-6.156-4.777-18.114-1.93-15.5 2.812 2.59 7.415 6.758 7.414 3.984-.13-2.59-12.092-19.267-11.982-24.839-.094-5.229 12.778 9.617 13.744 7.633.8-1.577-14.734-16.928-16.18-25.906-1.595-8.7-.357-16.222.411-16.085.711.2 7.8 11.659 9.445 11.157 1.387-.265-2.277-53.836 23.039-65.278 21.026 13.61 40.325 48.662 40.42 48.642 1.52-.458 3.324-10.958 4.065-11.285.677-.348 4.429 4.19 6.8 10.143 2.152 5.826-2.28 22.76-.373 23.355 1.6.382 4.128-14.712 6.941-11.669 2.536 2.91 2.887 17.984 4.783 19.268 1.728 1.242 2.462-3.5 3.1-6.324.642-2.783 7.047 2.853 8.1 7.667.77 4.735-2.341 23.313.549 22.574 2.482-.976 5.351-18.047 7.967-13.192 2.338 4.612-1.605 19.358 1.9 20.618 3.242 1.081 4.084-12.273 4.21-12.212-.02.023 4.621 6.532 6.925 10.94 2.133 4.311-5.023 18.426-2.076 20.962 2.679 2.313 5.638-14.859 5.831-14.747.021 0 2.846 2.146 6.009 7.9 3.191 5.7-1.659 12.952 1.321 18.448 3.035 5.434 8.666-3.229 8.672-3.2 17.365 24.908 18.141 46.984 15.292 61.443z" class="cls-1" transform="translate(-100.721 -291.858)"/>
        </g>
        <g id="Group_1297" transform="translate(6.676 335.372)">
            <path id="Path_1218" d="M277.587 450.685L175.964 489.9a17.806 17.806 0 0 1-8.194-1.466c-9.155-4.115-12.961-8.016-12.961-7.988.1.215 21.459-1.752 17.378-5.124-3.848-3.1-20.158 3.311-26.892-.682-6.662-3.8-16.048-11.848-16.013-11.877.026.164 17.685 3.635 15.707-.625-1.849-3.935-20.846-4.8-27.11-10.4-6.107-5.228 16.14-.117 17.141-3.04 1.1-2.4-22.3-7.3-28.3-11.928-6.05-4.263-10.98-15.179-7.38-13.764 3.556 1.4 9.35 3.634 8.35 1.048-1.054-2.369-18.218-13.622-20.122-18.859-1.971-4.846 15.384 4.372 15.57 2.173.178-1.759-19.839-10.487-24.42-18.342-4.622-7.546-6.175-15-5.408-15.153.734-.072 11.47 8.07 12.828 7.007 1.2-.748-21.507-49.407-2.009-69.2 24.517 5.128 55.141 30.88 55.223 30.828 1.252-.976-.844-11.42-.272-11.992.506-.569 5.641 2.315 9.992 7.015 4.107 4.662 6.068 22.055 8.062 21.923 1.634-.22-1.447-15.211 2.274-13.384 3.414 1.8 9.168 15.738 11.4 16.253 2.06.537 1.037-4.151.62-7.017-.4-2.827 7.6.126 10.321 4.236 2.42 4.139 6.208 22.591 8.639 20.862 1.964-1.8-1.506-18.762 2.683-15.176 3.841 3.46 5.472 18.638 9.193 18.552 3.417-.16-.609-12.922-.468-12.908-.01.028 6.662 4.431 10.4 7.712 3.542 3.254 1.946 19 5.61 20.3 3.332 1.194-.089-15.892.13-15.858.019-.006 3.427.979 8.45 5.207 5.03 4.169 3.115 12.68 7.875 16.734 4.789 3.977 6.922-6.134 6.938-6.11 25.168 16.997 33.839 37.315 36.388 51.828z" class="cls-2" transform="translate(-73.125 -311.686)"/>
        </g>
        <g id="Group_1298" transform="translate(291.836 278.708)">
            <path id="Path_1219" d="M269.447 499.5h123.8a20.223 20.223 0 0 0 8.089-4.906c8.024-8.11 10.462-13.8 10.475-13.774-.023.272-23.471 6.924-20.524 1.678 2.811-4.864 22.729-4.736 28.233-11.726 5.509-6.756 12.168-19.13 12.119-19.144.038.184-17.266 11.088-16.908 5.765.348-4.931 20.136-13.621 24.486-22.123 4.337-8.042-17.16 6.48-19.419 3.79-2.151-2.088 20.654-16.857 25.126-24.226 4.67-7 5.43-20.587 2.193-17.615-3.2 2.944-8.428 7.682-8.426 4.53.148-2.944 13.742-21.9 13.618-28.231.107-5.943-14.522 10.93-15.618 8.674-.91-1.791 16.743-19.237 18.386-29.441 1.814-9.891.407-18.436-.467-18.28-.808.224-8.858 13.251-10.734 12.678-1.577-.3 2.587-61.184-26.185-74.189-23.9 15.469-45.83 55.307-45.936 55.282-1.728-.519-3.779-12.453-4.619-12.825-.77-.4-5.033 4.761-7.726 11.527-2.446 6.622 2.591 25.866.424 26.542-1.823.435-4.691-16.72-7.888-13.259-2.883 3.307-3.282 20.436-5.437 21.9-1.964 1.411-2.8-3.978-3.528-7.187-.729-3.162-8.007 3.242-9.211 8.713-.874 5.38 2.661 26.5-.622 25.655-2.822-1.109-6.081-20.509-9.056-14.993-2.657 5.241 1.825 22-2.158 23.431-3.686 1.231-4.641-13.947-4.785-13.877.023.025-5.251 7.423-7.87 12.434-2.424 4.9 5.709 20.938 2.36 23.822-3.045 2.629-6.409-16.886-6.628-16.761-.022 0-3.232 2.439-6.827 8.98-3.629 6.478 1.886 14.718-1.5 20.964-3.449 6.177-9.849-3.671-9.857-3.64-19.737 28.309-20.616 53.399-17.38 69.832z" class="cls-1" transform="translate(-268.016 -272.959)"/>
        </g>
        <g id="Group_1324" transform="translate(378.625 234.817)">
            <g id="Group_1299" transform="translate(28.286 17.657)">
                <path id="Path_1220" d="M404.4 256.211c-11.439 12.995-20.458 28.579-28.324 43.893a279.041 279.041 0 0 0-27.925 87.807l-1.485-.533A285.276 285.276 0 0 1 373.883 301c7.979-15.963 17.378-32.216 29.237-45.685.657-.75 1.944.14 1.28.896z" class="cls-3" transform="translate(-346.663 -255.03)"/>
            </g>
            <g id="Group_1300" transform="translate(2.711 125.95)">
                <path id="Path_1221" d="M355.153 353.193s-2.673-14.531-25.969-24.151c0 0 6.655 17.971 25.969 24.151z" class="cls-3" transform="translate(-329.184 -329.042)"/>
            </g>
            <g id="Group_1301" transform="translate(0 111.916)">
                <path id="Path_1222" d="M357.784 346.539s-3.4-16.009-30.453-27.089c0 0 8.069 19.873 30.453 27.089z" class="cls-3" transform="translate(-327.331 -319.45)"/>
            </g>
            <g id="Group_1302" transform="translate(5.97 99.089)">
                <path id="Path_1223" d="M357.669 341.854s-1.077-16.329-26.258-31.17c0 0 5.139 20.824 26.258 31.17z" class="cls-3" transform="translate(-331.411 -310.684)"/>
            </g>
            <g id="Group_1303" transform="translate(12.826 86.889)">
                <path id="Path_1224" d="M358.956 336.087s.636-16.352-22.859-33.741c.003 0 2.935 21.245 22.859 33.741z" class="cls-3" transform="translate(-336.097 -302.346)"/>
            </g>
            <g id="Group_1304" transform="translate(11.356 67.957)">
                <path id="Path_1225" d="M362.888 328.985s.309-18.868-27.8-39.578a63.021 63.021 0 0 0 27.8 39.578z" class="cls-3" transform="translate(-335.092 -289.407)"/>
            </g>
            <g id="Group_1305" transform="translate(15.053 53.347)">
                <path id="Path_1226" d="M366.425 320.5s.342-19.6-28.806-41.079a65.3 65.3 0 0 0 28.806 41.079z" class="cls-3" transform="translate(-337.619 -279.422)"/>
            </g>
            <g id="Group_1306" transform="translate(25.096 38.316)">
                <path id="Path_1227" d="M366.385 314.287s3.454-19.293-21.9-45.138a65.282 65.282 0 0 0 21.9 45.138z" class="cls-3" transform="translate(-344.483 -269.149)"/>
            </g>
            <g id="Group_1307" transform="translate(38.624 26.381)">
                <path id="Path_1228" d="M368.146 303.952s5.384-16.837-14.209-42.96a58.878 58.878 0 0 0 14.209 42.96z" class="cls-3" transform="translate(-353.728 -260.992)"/>
            </g>
            <g id="Group_1308" transform="translate(46.247 16.113)">
                <path id="Path_1229" d="M373.407 293.8s4.205-15.2-14.4-39.828c-.007.002-1.878 21.063 14.4 39.828z" class="cls-3" transform="translate(-358.938 -253.974)"/>
            </g>
            <g id="Group_1309" transform="translate(53.894 7.97)">
                <path id="Path_1230" d="M377.941 283.165s2.9-12.855-13.771-34.756c0 0-.697 17.981 13.771 34.756z" class="cls-3" transform="translate(-364.164 -248.409)"/>
            </g>
            <g id="Group_1310" transform="translate(65.401 2.271)">
                <path id="Path_1231" d="M379.51 278.085s4.09-10.655-7.09-33.571c0 0-2.9 15.646 7.09 33.571z" class="cls-3" transform="translate(-372.029 -244.514)"/>
            </g>
            <g id="Group_1311" transform="translate(74.288)">
                <path id="Path_1232" d="M382.826 268.982s4.5-8.751-3.762-26.02a35.8 35.8 0 0 0 3.762 26.02z" class="cls-3" transform="translate(-378.103 -242.962)"/>
            </g>
            <g id="Group_1312" transform="translate(83.515 .36)">
                <path id="Path_1233" d="M384.409 263s12.419-2.18 14.537-19.792c0 0-14.061 5.792-14.537 19.792z" class="cls-3" transform="translate(-384.409 -243.208)"/>
            </g>
            <g id="Group_1313" transform="translate(79.418 17.825)">
                <path id="Path_1234" d="M407.065 255.739s-9.186-3.521-25.456 6.567a35.8 35.8 0 0 0 25.456-6.567z" class="cls-3" transform="translate(-381.609 -255.144)"/>
            </g>
            <g id="Group_1314" transform="translate(28.623 144.162)">
                <path id="Path_1235" d="M346.893 346.42s11.307-9.512 35.4-2.116c.007-.004-16.563 9.634-35.4 2.116z" class="cls-3" transform="translate(-346.893 -341.488)"/>
            </g>
            <g id="Group_1315" transform="translate(32.54 121.982)">
                <path id="Path_1236" d="M349.57 334.72s11.22-11.915 40.088-7.348c0 0-17.21 12.8-40.088 7.348z" class="cls-3" transform="translate(-349.57 -326.33)"/>
            </g>
            <g id="Group_1316" transform="translate(35.04 108.045)">
                <path id="Path_1237" d="M351.279 328.426s9.913-13.024 39.1-11.5c-.001.004-15.779 14.53-39.1 11.5z" class="cls-3" transform="translate(-351.279 -316.805)"/>
            </g>
            <g id="Group_1317" transform="translate(38.722 93.787)">
                <path id="Path_1238" d="M353.8 320.084s11.765-14.753 46.623-12.856a63.023 63.023 0 0 1-46.623 12.856z" class="cls-3" transform="translate(-353.795 -307.06)"/>
            </g>
            <g id="Group_1318" transform="translate(43.465 79.749)">
                <path id="Path_1239" d="M357.037 311.012s12.2-15.337 48.357-13.372a65.294 65.294 0 0 1-48.357 13.372z" class="cls-3" transform="translate(-357.037 -297.466)"/>
            </g>
            <g id="Group_1319" transform="translate(47.558 61.771)">
                <path id="Path_1240" d="M359.834 306.075s9.609-17.086 45.612-20.9a65.3 65.3 0 0 1-45.612 20.9z" class="cls-3" transform="translate(-359.834 -285.179)"/>
            </g>
            <g id="Group_1320" transform="translate(53.8 48.582)">
                <path id="Path_1241" d="M364.1 295.775s8.375-15.567 40.779-19.609a58.878 58.878 0 0 1-40.779 19.609z" class="cls-3" transform="translate(-364.1 -276.165)"/>
            </g>
            <g id="Group_1321" transform="translate(61.298 32.747)">
                <path id="Path_1242" d="M369.225 286.913s6.423-14.4 36.449-21.57c0 0-11.95 17.442-36.449 21.57z" class="cls-3" transform="translate(-369.225 -265.343)"/>
            </g>
            <g id="Group_1322" transform="translate(73.067 24.077)">
                <path id="Path_1243" d="M377.268 270.672s7.015-9 32.415-11.255c0 0-11.904 10.56-32.415 11.255z" class="cls-3" transform="translate(-377.268 -259.417)"/>
            </g>
            <g id="Group_1323" transform="translate(30.124 133.869)">
                <path id="Path_1244" d="M347.919 339.471s12.812-10.187 40.729-1.53c0 0-18.866 10.203-40.729 1.53z" class="cls-3" transform="translate(-347.919 -334.454)"/>
            </g>
        </g>
        <g id="Group_1325" transform="translate(299.136 306.36)">
            <path id="Path_1245" d="M273.005 449.832L388.5 494.4a20.233 20.233 0 0 0 9.313-1.665c10.406-4.676 14.73-9.11 14.731-9.079-.119.246-24.388-1.99-19.75-5.823 4.372-3.525 22.909 3.765 30.561-.774 7.57-4.319 18.239-13.466 18.2-13.5-.029.188-20.1 4.129-17.849-.71 2.1-4.473 23.69-5.456 30.81-11.822 6.94-5.942-18.344-.133-19.482-3.456-1.254-2.722 25.339-8.29 32.162-13.555 6.877-4.845 12.479-17.251 8.39-15.644-4.041 1.595-10.627 4.132-9.492 1.192 1.2-2.694 20.7-15.482 22.868-21.434 2.24-5.507-17.484 4.967-17.694 2.468-.2-2 22.548-11.917 27.755-20.846 5.253-8.576 7.016-17.053 6.145-17.222-.834-.082-13.035 9.171-14.579 7.964-1.362-.849 24.442-56.151 2.283-78.641-27.863 5.826-62.668 35.1-62.76 35.034-1.425-1.107.958-12.978.309-13.628-.576-.647-6.41 2.629-11.357 7.971-4.668 5.3-6.9 25.066-9.163 24.917-1.857-.25 1.646-17.289-2.584-15.211-3.879 2.047-10.419 17.886-12.956 18.471-2.339.61-1.179-4.717-.7-7.974.458-3.213-8.637.142-11.729 4.814-2.752 4.7-7.057 25.676-9.819 23.711-2.233-2.051 1.712-21.324-3.049-17.249-4.366 3.933-6.219 21.182-10.45 21.084-3.882-.181.692-14.684.534-14.671.01.032-7.572 5.036-11.82 8.767-4.026 3.7-2.212 21.591-6.377 23.074-3.788 1.356.1-18.062-.148-18.023-.022-.007-3.895 1.112-9.6 5.918-5.718 4.738-3.541 14.411-8.95 19.018-5.443 4.52-7.867-6.971-7.885-6.944-28.613 19.312-38.468 42.404-41.363 58.9z" class="cls-2" transform="translate(-273.005 -291.858)"/>
        </g>
        <g id="Group_1351" transform="translate(53.081 255.576)">
            <g id="Group_1326" transform="translate(19.275 17.657)">
                <path id="Path_1246" d="M118.2 270.4c11.439 13 20.458 28.58 28.324 43.894a279.021 279.021 0 0 1 27.925 87.806l1.485-.534a285.313 285.313 0 0 0-27.22-86.382c-7.979-15.963-17.378-32.215-29.237-45.685-.657-.746-1.944.145-1.277.901z" class="cls-3" transform="translate(-118.014 -269.218)"/>
            </g>
            <g id="Group_1327" transform="translate(76.802 125.95)">
                <path id="Path_1247" d="M157.33 367.381S160 352.85 183.3 343.23c0 0-6.655 17.97-25.97 24.151z" class="cls-3" transform="translate(-157.33 -343.23)"/>
            </g>
            <g id="Group_1328" transform="translate(75.03 111.916)">
                <path id="Path_1248" d="M156.119 360.727s3.4-16.009 30.452-27.089c0 0-8.071 19.873-30.452 27.089z" class="cls-3" transform="translate(-156.119 -333.638)"/>
            </g>
            <g id="Group_1329" transform="translate(73.254 99.089)">
                <path id="Path_1249" d="M154.905 356.044s1.077-16.331 26.258-31.172c0 0-5.138 20.828-26.258 31.172z" class="cls-3" transform="translate(-154.905 -324.872)"/>
            </g>
            <g id="Group_1330" transform="translate(69.795 86.889)">
                <path id="Path_1250" d="M152.543 350.275s-.636-16.353 22.859-33.741c-.002 0-2.935 21.245-22.859 33.741z" class="cls-3" transform="translate(-152.541 -316.534)"/>
            </g>
            <g id="Group_1331" transform="translate(66.33 67.959)">
                <path id="Path_1251" d="M150.173 343.172s-.309-18.868 27.8-39.576a63.023 63.023 0 0 1-27.8 39.576z" class="cls-3" transform="translate(-150.173 -303.596)"/>
            </g>
            <g id="Group_1332" transform="translate(61.623 53.347)">
                <path id="Path_1252" d="M146.956 334.689s-.342-19.6 28.806-41.079a65.3 65.3 0 0 1-28.806 41.079z" class="cls-3" transform="translate(-146.956 -293.61)"/>
            </g>
            <g id="Group_1333" transform="translate(58.325 38.316)">
                <path id="Path_1253" d="M144.86 328.475s-3.455-19.292 21.9-45.138a65.277 65.277 0 0 1-21.9 45.138z" class="cls-3" transform="translate(-144.702 -283.337)"/>
            </g>
            <g id="Group_1334" transform="translate(51.763 26.383)">
                <path id="Path_1254" d="M140.894 318.14s-5.384-16.84 14.206-42.959a58.875 58.875 0 0 1-14.206 42.959z" class="cls-3" transform="translate(-140.217 -275.181)"/>
            </g>
            <g id="Group_1335" transform="translate(44.359 16.111)">
                <path id="Path_1255" d="M135.564 307.99s-4.205-15.2 14.4-39.829c.004 0 1.876 21.063-14.4 39.829z" class="cls-3" transform="translate(-135.157 -268.161)"/>
            </g>
            <g id="Group_1336" transform="translate(37.618 7.97)">
                <path id="Path_1256" d="M130.743 297.353s-2.9-12.855 13.771-34.756c.001.003.696 17.981-13.771 34.756z" class="cls-3" transform="translate(-130.55 -262.597)"/>
            </g>
            <g id="Group_1337" transform="translate(31.87 2.271)">
                <path id="Path_1257" d="M127.351 292.273s-4.09-10.655 7.091-33.571c.001-.002 2.9 15.646-7.091 33.571z" class="cls-3" transform="translate(-126.621 -258.702)"/>
            </g>
            <g id="Group_1338" transform="translate(25.248)">
                <path id="Path_1258" d="M123.318 283.17s-4.5-8.751 3.762-26.02a35.8 35.8 0 0 1-3.762 26.02z" class="cls-3" transform="translate(-122.096 -257.15)"/>
            </g>
            <g id="Group_1339" transform="translate(7.43 .36)">
                <path id="Path_1259" d="M124.455 277.188s-12.419-2.18-14.537-19.792c0 .004 14.061 5.797 14.537 19.792z" class="cls-3" transform="translate(-109.918 -257.396)"/>
            </g>
            <g id="Group_1340" transform="translate(.607 17.825)">
                <path id="Path_1260" d="M105.255 269.927s9.186-3.52 25.456 6.567a35.8 35.8 0 0 1-25.456-6.567z" class="cls-3" transform="translate(-105.255 -269.332)"/>
            </g>
            <g id="Group_1341" transform="translate(41.455 144.162)">
                <path id="Path_1261" d="M168.575 360.608s-11.306-9.512-35.4-2.116c-.003.001 16.563 9.634 35.4 2.116z" class="cls-3" transform="translate(-133.172 -355.676)"/>
            </g>
            <g id="Group_1342" transform="translate(32.854 121.982)">
                <path id="Path_1262" d="M167.382 348.908s-11.22-11.915-40.088-7.348c0 0 17.206 12.8 40.088 7.348z" class="cls-3" transform="translate(-127.294 -340.518)"/>
            </g>
            <g id="Group_1343" transform="translate(31.343 108.045)">
                <path id="Path_1263" d="M165.36 342.614s-9.913-13.024-39.1-11.5c.001.004 15.779 14.53 39.1 11.5z" class="cls-3" transform="translate(-126.261 -330.993)"/>
            </g>
            <g id="Group_1344" transform="translate(20.138 93.787)">
                <path id="Path_1264" d="M165.224 334.272s-11.764-14.753-46.624-12.856a63.01 63.01 0 0 0 46.624 12.856z" class="cls-3" transform="translate(-118.603 -321.248)"/>
            </g>
            <g id="Group_1345" transform="translate(13.66 79.749)">
                <path id="Path_1265" d="M162.533 325.2s-12.2-15.337-48.357-13.372a65.3 65.3 0 0 0 48.357 13.372z" class="cls-3" transform="translate(-114.176 -311.654)"/>
            </g>
            <g id="Group_1346" transform="translate(12.313 61.771)">
                <path id="Path_1266" d="M158.867 320.263s-9.607-17.086-45.612-20.9a65.3 65.3 0 0 0 45.612 20.9z" class="cls-3" transform="translate(-113.255 -299.367)"/>
            </g>
            <g id="Group_1347" transform="translate(10.902 48.582)">
                <path id="Path_1267" d="M153.071 309.963s-8.377-15.567-40.78-19.609a58.89 58.89 0 0 0 40.78 19.609z" class="cls-3" transform="translate(-112.291 -290.353)"/>
            </g>
            <g id="Group_1348" transform="translate(7.734 32.747)">
                <path id="Path_1268" d="M146.577 301.1s-6.425-14.4-36.451-21.57c0 .001 11.951 17.445 36.451 21.57z" class="cls-3" transform="translate(-110.126 -279.531)"/>
            </g>
            <g id="Group_1349" transform="translate(0 24.077)">
                <path id="Path_1269" d="M137.255 284.86s-7.015-9-32.415-11.255c0-.005 11.904 10.56 32.415 11.255z" class="cls-3" transform="translate(-104.84 -273.605)"/>
            </g>
            <g id="Group_1350" transform="translate(34.629 133.869)">
                <path id="Path_1270" d="M169.236 353.659s-12.812-10.187-40.729-1.531c0 .001 18.866 10.204 40.729 1.531z" class="cls-3" transform="translate(-128.507 -348.642)"/>
            </g>
        </g>
        <g id="Group_1352" transform="translate(69.569 491.97)">
            <path id="Path_1271" fill="#828891" fill-rule="evenodd" d="M309.235 445.256c106.37 0 193.126-5.963 193.126-13.272s-86.756-13.271-193.126-13.271-193.126 5.961-193.126 13.271 86.756 13.272 193.126 13.272z" transform="translate(-116.109 -418.712)"/>
        </g>
        <g id="Group_1422">
            <g id="Group_1353" transform="translate(141.313 38.732)">
                <path id="Path_1272" d="M409.825 144.222V540.19a35.266 35.266 0 0 1-35.273 35.274H200.415a35.267 35.267 0 0 1-35.273-35.274V144.222a35.279 35.279 0 0 1 35.273-35.273h174.137a35.278 35.278 0 0 1 35.273 35.273z" class="cls-5" transform="translate(-165.142 -108.949)"/>
            </g>
            <g id="Group_1354" transform="translate(150.881 48.299)">
                <path id="Rectangle_86" fill="#edf7fb" d="M17.569 0H207.98a17.568 17.568 0 0 1 17.568 17.568v412.244a17.569 17.569 0 0 1-17.569 17.569H17.568A17.568 17.568 0 0 1 0 429.813V17.569A17.569 17.569 0 0 1 17.569 0z"/>
            </g>
            <g id="Group_1355" transform="translate(193.312 407.966)">
                <ellipse id="Ellipse_92" cx="68.504" cy="12.056" fill="#aabeeb" rx="68.504" ry="12.056"/>
            </g>
            <g id="Group_1356" transform="translate(385.996 110.89)">
                <path id="Path_1273" d="M334.419 251.692h-2.05v-93.427h2.05a4.623 4.623 0 0 1 4.622 4.625v84.177a4.624 4.624 0 0 1-4.622 4.625z" class="cls-8" transform="translate(-332.369 -158.265)"/>
            </g>
            <g id="Group_1357" transform="translate(135.111 109.301)">
                <path id="Path_1274" d="M167.105 202.621h-1.9a4.3 4.3 0 0 1-4.3-4.3v-36.843a4.3 4.3 0 0 1 4.3-4.3h1.905z" class="cls-8" transform="translate(-160.903 -157.179)"/>
            </g>
            <g id="Group_1358" transform="translate(135.905 176.353)">
                <path id="Path_1275" d="M166.854 230.969h-1.661a3.748 3.748 0 0 1-3.747-3.747v-20.468a3.748 3.748 0 0 1 3.747-3.749h1.661z" class="cls-8" transform="translate(-161.446 -203.005)"/>
            </g>
            <g id="Group_1359" transform="translate(205.905 38.732)">
                <path id="Path_1276" d="M209.287 108.949h115.659v16.607a16.654 16.654 0 0 1-16.606 16.606h-82.446a16.655 16.655 0 0 1-16.607-16.606z" class="cls-5" transform="translate(-209.287 -108.949)"/>
            </g>
            <g id="Group_1362" transform="translate(231.016 51.321)">
                <g id="Group_1360">
                    <path id="Path_1277" d="M234.482 121.571a4.016 4.016 0 1 1-4.016-4.018 4.016 4.016 0 0 1 4.016 4.018z" class="cls-9" transform="translate(-226.449 -117.553)"/>
                </g>
                <g id="Group_1361" transform="translate(11.585 1.071)">
                    <rect id="Rectangle_87" width="53.852" height="5.892" class="cls-10" rx="1.395"/>
                </g>
            </g>
            <g id="Group_1385" transform="translate(126.409 166.373)">
                <g id="Group_1371" transform="translate(0 11.921)">
                    <g id="Group_1363" transform="translate(0 14.413)">
                        <path id="Path_1278" d="M158.624 214.7c4.054-2.015 9.828 2.06 12.968 9.114 2.309.5 3.885 3.933 3.591 8.055-.244 3.415-1.7 6.306-3.545 7.429a5.3 5.3 0 0 1-1.721 1.386c-4.091 2.034-9.935-2.135-13.053-9.31s-2.331-14.642 1.76-16.674z" class="cls-11" transform="translate(-154.956 -214.183)"/>
                    </g>
                    <g id="Group_1364" transform="translate(234.806 65.976)">
                        <path id="Path_1279" d="M332.027 249.938c-4.054-2.013-9.83 2.06-12.968 9.114-2.309.5-3.885 3.933-3.591 8.056.244 3.415 1.7 6.3 3.545 7.427a5.276 5.276 0 0 0 1.721 1.387c4.091 2.032 9.935-2.136 13.053-9.312s2.331-14.638-1.76-16.672z" class="cls-11" transform="translate(-315.433 -249.423)"/>
                    </g>
                    <g id="Group_1365" transform="translate(7.547 35.802)">
                        <path id="Path_1280" fill="#eb5b49" fill-rule="evenodd" d="M277.667 280.865l-29.337 4.166c-37.244 5.286-63.5-18.1-75.812-56.23a14.729 14.729 0 0 1-12.4 4.013c5.917 48.361 33.734 76.175 82.462 86.588 1.214 37.882 3.263 78.838 2.343 116.067a213.788 213.788 0 0 0 82.308 2.031c-3.158-37.822-2.4-70.947 1.094-107.595 12.56 12.6 35.652 27.727 43.784 26.236 14.371-2.634 22.066-38.726 26.59-71.3-5.351-.477-9.053-3.286-11.287-8.178-5.586 18.2-12.083 33.353-19.172 50.421-26.018-17.052-35.735-32.506-65.309-47.618z" transform="translate(-160.114 -228.801)"/>
                    </g>
                    <g id="Group_1366" transform="translate(124.695 73.376)">
                        <path id="Path_1281" d="M240.178 254.481h25.666v13.088c7.133 6.979 3.395 12.339-6.789 11.808-8.671-.454-18.876-3.466-18.876-13.742z" class="cls-11" transform="translate(-240.178 -254.481)"/>
                    </g>
                    <g id="Group_1367" transform="translate(124.695 73.376)">
                        <path id="Path_1282" d="M240.178 254.481h25.666v6.545l-21.7 13.6a11.307 11.307 0 0 1-3.967-8.993z" class="cls-13" transform="translate(-240.178 -254.481)"/>
                    </g>
                    <g id="Group_1368" transform="translate(97.924)">
                        <path id="Path_1283" d="M284.53 227.541l-35.877 50.168.325 5.537c-9.939-13.875-20.25-16.674-24.726-31.505-5.894-19.528-.925-36.284 16.4-42.53 5.123-1.847 11.195 1.8 16.057-.812 12.51-6.713 17.947-4.107 19.048.587 1.828 7.8 14.785-3.346 18.612 4.044 3.778 7.297-.769 13.207-9.839 14.511z" class="cls-14" transform="translate(-221.882 -204.332)"/>
                    </g>
                    <g id="Group_1369" transform="translate(110.16 23.208)">
                        <path id="Path_1284" d="M256.256 223.447a44.651 44.651 0 0 0 24.4-3.253c12.619 21.212 13.071 51.02-9.334 56.738-12.395 3.165-29.063-1.583-31.062-16.614-8.821-.888-12.714-15.2-7.992-18.92 4.96-3.91 8.368 3.412 9.155 7.642l2.166-.638L242.431 237a27.616 27.616 0 0 0 13.825-13.553z" class="cls-11" transform="translate(-230.244 -220.194)"/>
                    </g>
                    <g id="Group_1370" transform="translate(110.16 23.208)">
                        <path id="Path_1285" d="M256.256 223.447a44.651 44.651 0 0 0 24.4-3.253 37.191 37.191 0 0 1-23.572 11.366c-10.466 17.5-5.322 38.268 17.958 44.115a25.325 25.325 0 0 1-3.719 1.257c-12.395 3.165-29.063-1.583-31.062-16.614-8.821-.888-12.714-15.2-7.992-18.92 4.96-3.91 8.368 3.412 9.155 7.642l2.166-.638L242.431 237a27.616 27.616 0 0 0 13.825-13.553z" class="cls-13" transform="translate(-230.244 -220.194)"/>
                    </g>
                </g>
                <g id="Group_1384" transform="translate(214.397)">
                    <g id="Group_1372" transform="translate(23.942 79.082)">
                        <path id="Path_1286" fill="#3b70cc" fill-rule="evenodd" stroke="rgba(0,0,0,0)" stroke-miterlimit="10" d="M317.847 252.419l9.549-2.186 3.564 15.567a2.3 2.3 0 0 1-1.724 2.749l-5.077 1.162a2.3 2.3 0 0 1-2.748-1.725z" transform="translate(-317.847 -250.233)"/>
                    </g>
                    <g id="Group_1373" transform="translate(0 26.055)">
                        <path id="Path_1287" d="M315.967 236.9c21.784-3.408 40.177-9.3 50.566-22.909l21.4 48.462-14.357 17.419c-20.386-12.744-35.2-11.938-53.968-10.15-8.955.853-17.033-5.2-18.025-14.142a16.619 16.619 0 0 1 1.506-8.93v-.007c.048-.1.1-.2.146-.3l.018-.038a17.191 17.191 0 0 1 1.042-1.81v-.006c.058-.088.117-.177.177-.263l.034-.05c.057-.082.114-.164.173-.246l.035-.047c.061-.086.123-.171.187-.256l.01-.013c.066-.089.133-.176.2-.263l.034-.044q.411-.522.862-1.015l.031-.035.182-.193.086-.091.161-.165.108-.108.157-.155.1-.1.167-.158.107-.1.173-.158.082-.07c.064-.057.129-.114.195-.17.089-.078.181-.154.272-.228l.174-.141.121-.1.167-.127.133-.1.173-.127.127-.092.178-.126.143-.1.154-.1.19-.124.124-.08c.067-.044.136-.086.2-.127l.127-.079c.072-.044.143-.085.215-.127l.107-.063.091-.051.244-.136.108-.058.224-.117.142-.073.208-.1.142-.067.2-.1.154-.07.209-.091.143-.063.238-.1.114-.045q.132-.053.263-.1l.11-.042h.006c.113-.042.227-.082.341-.121h.006l.145-.048.228-.075.149-.045.228-.069.161-.045.214-.058.161-.042.244-.06.13-.031c.091-.02.18-.041.271-.06l.122-.026.265-.051.135-.026c.151-.035.279-.057.41-.078z" class="cls-16" transform="translate(-301.484 -213.992)"/>
                    </g>
                    <g id="Group_1374" transform="translate(8.717 26.055)">
                        <path id="Path_1288" fill="#6fa0fd" fill-rule="evenodd" stroke="rgba(0,0,0,0)" stroke-miterlimit="10" d="M313.207 236.9c21.784-3.408 40.177-9.3 50.566-22.909-5.643 16.884-7.437 33.767-4.793 50.651-13.8-2.9-27.6-2.874-41.4-1.172l-10.14-24.539.069-.04.244-.136.108-.058.224-.117.142-.073.208-.1.142-.067.2-.1.154-.07.209-.091.144-.063.238-.1.114-.045q.132-.053.263-.1l.11-.042h.006c.113-.042.227-.082.341-.121h.006l.145-.048.228-.075.149-.045.228-.069.161-.045.214-.058.161-.042.244-.06.13-.031c.091-.02.18-.041.271-.06l.121-.026.265-.051.135-.026c.134-.029.263-.051.393-.072z" transform="translate(-307.442 -213.992)"/>
                    </g>
                    <g id="Group_1375" transform="translate(0 48.386)">
                        <path id="Path_1289" d="M315.966 229.832q1.778-.276 3.523-.578a76.548 76.548 0 0 0-.247 19.972 82.773 82.773 0 0 0 2.537 13.224l-2.17.2c-8.955.853-17.033-5.2-18.025-14.142a17.231 17.231 0 0 1 14.382-18.676z" class="cls-18" transform="translate(-301.484 -229.254)"/>
                    </g>
                    <g id="Group_1376" transform="translate(62.669)">
                        <path id="Path_1290" d="M366.962 196.273c15.6-1.731 31.062 22.262 34.538 53.592s-6.349 58.128-21.946 59.859-31.063-22.262-34.54-53.59 6.349-58.134 21.948-59.861z" class="cls-19" transform="translate(-344.315 -196.185)"/>
                    </g>
                    <g id="Group_1377" transform="translate(66.17 3.519)">
                        <path id="Path_1291" d="M366.243 198.662c13.663-1.517 27.385 21.083 30.646 50.477s-5.169 54.452-18.833 55.968-27.385-21.081-30.648-50.477 5.171-54.451 18.835-55.968z" class="cls-20" transform="translate(-346.708 -198.59)"/>
                    </g>
                    <g id="Group_1378" transform="translate(63.696 4.902)">
                        <ellipse id="Ellipse_93" cx="22.569" cy="49.726" fill="#6fa0fd" rx="22.569" ry="49.726" transform="rotate(-6.333 45 2.49)"/>
                    </g>
                    <g id="Group_1379" transform="translate(68.515 33.482)">
                        <path id="Path_1292" d="M361.745 282.637c-6.169-8.482-11.029-22.078-12.768-37.749a98.256 98.256 0 0 1 .377-25.819c7.075-.168 14.335 14.092 16.363 32.366 1.483 13.357-.232 25.235-3.972 31.202z" class="cls-16" transform="translate(-348.311 -219.068)"/>
                    </g>
                    <g id="Group_1380" transform="translate(68.542 49.725)">
                        <path id="Path_1293" fill="#505bb5" fill-rule="evenodd" d="M364.294 234.146l-15.965-3.977c.069 3.115.277 6.317.64 9.578a107.468 107.468 0 0 0 2.164 12.645l14.654-5.371z" transform="translate(-348.329 -230.169)"/>
                    </g>
                    <g id="Group_1381" transform="translate(69.607 60.14)">
                        <path id="Path_1294" d="M349.057 239.812l15.646-2.525.746 6.437-14.649 5.371c-.7-2.976-1.288-6.078-1.743-9.283z" class="cls-14" transform="translate(-349.057 -237.287)"/>
                    </g>
                    <g id="Group_1382" transform="translate(81.87 53.691)">
                        <path id="Path_1295" d="M360.075 232.89c1.808-.2 3.593 2.521 3.989 6.078s-.75 6.6-2.559 6.805-3.594-2.521-3.989-6.078.752-6.604 2.559-6.805z" class="cls-20" transform="translate(-357.438 -232.88)"/>
                    </g>
                    <g id="Group_1383" transform="translate(17.228 48.089)">
                        <path id="Path_1296" d="M315.709 229.051a76.407 76.407 0 0 0-.265 20.086 82.644 82.644 0 0 0 2.547 13.258q-.827.072-1.665.149a82.94 82.94 0 0 1-2.537-13.224 76.566 76.566 0 0 1 .247-19.974q.841-.146 1.673-.295z" class="cls-14" transform="translate(-313.259 -229.051)"/>
                    </g>
                </g>
            </g>
            <g id="Group_1389" transform="translate(71.708 132.047)">
                <g id="Group_1386" transform="translate(9.768 13.134)">
                    <path id="Path_1297" d="M175.831 181.7l14.462 19.99a31.834 31.834 0 1 1-51.584 37.318l-14.462-19.99 12.251-8.862 14.462 19.988a16.762 16.762 0 0 0 23.336 3.746 16.763 16.763 0 0 0 3.746-23.338l-14.461-19.99z" class="cls-18" transform="translate(-124.247 -181.701)"/>
                </g>
                <g id="Group_1387" transform="translate(0 28.189)">
                    <path id="Rectangle_88" d="M0 0H15.121V16.713H0z" class="cls-23" transform="matrix(.81 -.586 .586 .81 .267 9.13)"/>
                    <path id="Path_1298" fill="#3f79dc" d="M127.591 214.927l-.111-.154-9.909-13.7.155-.111 12.406-8.975.111.155 9.909 13.7-.155.111zm-9.486-13.764l9.572 13.231 11.941-8.639-9.572-13.231z" transform="translate(-117.571 -191.99)"/>
                </g>
                <g id="Group_1388" transform="translate(39.6)">
                    <path id="Rectangle_89" d="M0 0H15.121V16.713H0z" class="cls-23" transform="rotate(-35.883 13.686 4.432)"/>
                </g>
            </g>
            <g id="Group_1393" transform="translate(468.657 173.856)">
                <g id="Group_1390" transform="translate(1.177)">
                    <path id="Path_1299" d="M389.668 220.745l1.412 3.531 34.371-12.618-4.709-10.358z" class="cls-19" transform="translate(-389.668 -201.299)"/>
                </g>
                <g id="Group_1391" transform="translate(4.473 42.61)">
                    <path id="Path_1300" d="M391.92 231.6l.471 6.592 51.791 7.533-.706-15.3z" class="cls-19" transform="translate(-391.92 -230.42)"/>
                </g>
                <g id="Group_1392" transform="translate(0 69.447)">
                    <path id="Path_1301" d="M390.982 248.762l-2.119 4.944 26.837 23.305 4.943-8.24z" class="cls-19" transform="translate(-388.863 -248.762)"/>
                </g>
            </g>
            <g id="Group_1398" transform="translate(21.587 248.42)">
                <g id="Group_1394">
                    <rect id="Rectangle_90" width="90.645" height="84.433" class="cls-25" rx="8"/>
                </g>
                <g id="Group_1397" transform="translate(15.185 18.269)">
                    <g id="Group_1395">
                        <path id="Rectangle_91" d="M4.6 0h51.07a4.605 4.605 0 0 1 4.605 4.605V43.29a4.6 4.6 0 0 1-4.6 4.6H4.6a4.6 4.6 0 0 1-4.6-4.6V4.6A4.6 4.6 0 0 1 4.6 0z" class="cls-10"/>
                    </g>
                    <g id="Group_1396" transform="translate(4.941 4.937)">
                        <path id="Path_1302" d="M122.267 290.244l-25.2-22.125 25.2 16 25.2-16z" class="cls-19" transform="translate(-97.071 -268.119)"/>
                    </g>
                </g>
            </g>
            <g id="Group_1401" transform="translate(357.398 32.631)">
                <g id="Group_1399">
                    <circle id="Ellipse_94" cx="37.57" cy="37.57" r="37.57" class="cls-25" transform="rotate(-16.96 73.507 10.96)"/>
                </g>
                <g id="Group_1400" transform="translate(25.418 26.699)">
                    <path id="Path_1303" d="M358.794 130.533l-16.727 7.607c-.25-.136-.531-.392-.789-.56a7.165 7.165 0 1 0-1.882 12.864 7.373 7.373 0 0 0 1.816-.834 6.612 6.612 0 0 0 .762-.562 7.031 7.031 0 0 1 .749-.661 16.108 16.108 0 0 1 1.542.833c4.54 2.54 9.316 5.071 13.855 7.57 1.042.574.628.244.956 1.4a7.164 7.164 0 1 0 7.12-9.085 7.073 7.073 0 0 0-5.158 1.974 10.6 10.6 0 0 0-1.1 1.308c-.316-.059-10.787-5.851-11.545-6.274l-3.863-2.1-.085-1.791c2.682-1.223 5.326-2.441 8.056-3.664.494-.221 7.767-3.58 8.1-3.629a7.259 7.259 0 0 0 4.032 2.291 7.173 7.173 0 0 0 8.049-4.48 7.337 7.337 0 0 0-.117-5.4 7.177 7.177 0 0 0-13.662 1.664c-.103.55-.043 1.014-.109 1.529z" class="cls-9" transform="translate(-330.195 -123.027)"/>
                </g>
            </g>
            <g id="Group_1402" transform="translate(38.181)">
                <path id="Path_1304" d="M109.214 153.741h97.244a20.657 20.657 0 1 0 0-41.3 21.44 21.44 0 0 0-11.594 3.376 20.483 20.483 0 0 0-34.029-19.972 16.759 16.759 0 1 0-31.729 10.2q-.5-.033-1.018-.034a14.99 14.99 0 0 0-14.335 19.34 14.559 14.559 0 1 0-4.539 28.393z" class="cls-18" transform="translate(-94.657 -82.478)"/>
            </g>
            <g id="Group_1409" transform="translate(172.329 115.858)">
                <g id="Group_1403" transform="translate(15.451)">
                    <rect id="Rectangle_92" width="167.199" height="7.205" class="cls-26" rx="2.462"/>
                </g>
                <g id="Group_1404" transform="translate(15.451 20.172)">
                    <path id="Rectangle_93" d="M2.461 0h162.277a2.461 2.461 0 0 1 2.462 2.461v2.281a2.462 2.462 0 0 1-2.463 2.458H2.462A2.462 2.462 0 0 1 0 4.743V2.461A2.461 2.461 0 0 1 2.461 0z" class="cls-26"/>
                </g>
                <g id="Group_1405" transform="translate(15.451 40.343)">
                    <rect id="Rectangle_94" width="167.199" height="7.205" class="cls-26" rx="2.462"/>
                </g>
                <g id="Group_1406">
                    <rect id="Rectangle_95" width="9.137" height="7.205" class="cls-27" rx="2.462"/>
                </g>
                <g id="Group_1407" transform="translate(0 20.172)">
                    <path id="Rectangle_96" d="M2.461 0h4.215a2.461 2.461 0 0 1 2.461 2.461v2.282A2.462 2.462 0 0 1 6.675 7.2H2.462A2.462 2.462 0 0 1 0 4.743V2.461A2.461 2.461 0 0 1 2.461 0z" class="cls-27"/>
                </g>
                <g id="Group_1408" transform="translate(0 40.343)">
                    <rect id="Rectangle_97" width="9.137" height="7.205" class="cls-27" rx="2.462"/>
                </g>
            </g>
            <g id="Group_1414" transform="translate(172.329 447.511)">
                <g id="Group_1410" transform="translate(15.451)">
                    <rect id="Rectangle_98" width="167.199" height="7.205" class="cls-26" rx="2.461"/>
                </g>
                <g id="Group_1411" transform="translate(15.451 20.171)">
                    <rect id="Rectangle_99" width="167.199" height="7.205" class="cls-26" rx="2.462"/>
                </g>
                <g id="Group_1412">
                    <rect id="Rectangle_100" width="9.137" height="7.205" class="cls-27" rx="2.461"/>
                </g>
                <g id="Group_1413" transform="translate(0 20.171)">
                    <rect id="Rectangle_101" width="9.137" height="7.205" class="cls-27" rx="2.462"/>
                </g>
            </g>
            <g id="Group_1417" transform="translate(351.791 387.03)">
                <g id="Group_1415">
                    <rect id="Rectangle_102" width="116.984" height="80.357" class="cls-25" rx="8"/>
                </g>
                <g id="Group_1416" transform="translate(43.624 21.87)">
                    <path id="Path_1305" d="M338.806 361.938l38.343 17.974-38.343 17.974z" class="cls-28" transform="translate(-338.806 -361.938)"/>
                </g>
            </g>
            <g id="Group_1420" transform="translate(63.544 389.645)">
                <g id="Group_1418">
                    <path id="Path_1306" d="M119.629 360.11h20.622l5.278-8.765c.726-1.207 1.318-2.568 3.981-2.568h20.547c2.663 0 3.256 1.361 3.981 2.568l5.278 8.765h20.624a7.66 7.66 0 0 1 7.636 7.636v52.227a7.66 7.66 0 0 1-7.636 7.638h-80.311a7.66 7.66 0 0 1-7.638-7.638v-52.226a7.66 7.66 0 0 1 7.638-7.637z" class="cls-18" transform="translate(-111.991 -348.778)"/>
                </g>
                <g id="Group_1419" transform="translate(28.718 29.027)">
                    <path id="Path_1307" d="M150.694 406.767a19.076 19.076 0 1 0-19.076-19.076 19.112 19.112 0 0 0 19.076 19.076z" class="cls-28" transform="translate(-131.618 -368.616)"/>
                </g>
            </g>
            <g id="Group_1421" transform="translate(0 147.389)">
                <path id="Path_1308" fill="url(#linear-gradient)" fill-rule="evenodd" d="M75.072 188.5a20.1 20.1 0 0 1 29.8 26.683l9.105 9.923a2.792 2.792 0 0 1-.17 3.935l-1.668 1.53a2.79 2.79 0 0 1-3.933-.17l-9.106-9.924A20.1 20.1 0 0 1 75.072 188.5zm5.156 5.619a12.469 12.469 0 1 0 17.618.756 12.469 12.469 0 0 0-17.618-.757z" transform="translate(-68.562 -183.21)"/>
            </g>
        </g>
    </g>
</svg>
